<svg xmlns="http://www.w3.org/2000/svg" viewBox="0 0 200 220" fill="none">
  <!-- Shadow/ground -->
  <ellipse cx="100" cy="210" rx="60" ry="8" fill="#b0b0b0" opacity="0.25"/>
  <!-- Body/cloak base -->
  <path d="M55 130 C55 130 45 200 50 205 C55 210 145 210 150 205 C155 200 145 130 145 130 Z" fill="#5a6478"/>
  <!-- Green inner cloak -->
  <path d="M70 135 C70 135 62 195 67 200 C72 205 128 205 133 200 C138 195 130 135 130 135 Z" fill="#7a9a4a" opacity="0.7"/>
  <!-- Laptop base -->
  <rect x="60" y="165" width="55" height="35" rx="3" fill="#c0c0c0" transform="rotate(-5 87 182)"/>
  <!-- Laptop screen -->
  <rect x="62" y="140" width="51" height="30" rx="2" fill="#e8e8e8" transform="rotate(-5 87 155)"/>
  <rect x="65" y="143" width="45" height="24" rx="1" fill="#f5f5f0" transform="rotate(-5 87 155)"/>
  <!-- Green dot on laptop -->
  <circle cx="87" cy="155" r="3" fill="#7a9a4a" opacity="0.8"/>
  <!-- Arms -->
  <path d="M70 140 C65 155 68 170 75 175" stroke="#5a6478" stroke-width="8" stroke-linecap="round" fill="none"/>
  <path d="M130 140 C135 155 125 168 118 172" stroke="#5a6478" stroke-width="8" stroke-linecap="round" fill="none"/>
  <!-- Hands -->
  <circle cx="76" cy="176" r="5" fill="#f5d0b0"/>
  <circle cx="117" cy="173" r="5" fill="#f5d0b0"/>
  <!-- Head -->
  <circle cx="100" cy="105" r="25" fill="#f5d0b0"/>
  <!-- Eyes -->
  <circle cx="92" cy="102" r="2.5" fill="#2a2a2a"/>
  <circle cx="108" cy="102" r="2.5" fill="#2a2a2a"/>
  <!-- Mouth -->
  <ellipse cx="100" cy="114" rx="4" ry="3" fill="#c47a6a"/>
  <!-- Scarf/collar -->
  <path d="M75 120 C80 130 90 135 100 133 C110 135 120 130 125 120 C120 128 110 132 100 130 C90 132 80 128 75 120 Z" fill="#7a9a4a"/>
  <!-- Hat brim -->
  <ellipse cx="100" cy="88" rx="38" ry="8" fill="#4a5568"/>
  <!-- Hat cone -->
  <path d="M70 88 L100 30 L130 88 Z" fill="#5a6478"/>
  <!-- Hat band -->
  <rect x="70" y="83" width="60" height="6" rx="2" fill="#7a9a4a"/>
  <!-- Hat tip bend -->
  <path d="M100 30 C105 28 115 35 118 45" stroke="#5a6478" stroke-width="6" stroke-linecap="round" fill="none"/>
  <circle cx="119" cy="46" r="4" fill="#5a6478"/>
  <!-- Feet -->
  <ellipse cx="80" cy="208" rx="12" ry="5" fill="#4a4a4a"/>
  <ellipse cx="120" cy="208" rx="12" ry="5" fill="#4a4a4a"/>
</svg>
